<svg width="110" height="116" viewBox="0 0 110 116" fill="none" xmlns="http://www.w3.org/2000/svg">
<path fill-rule="evenodd" clip-rule="evenodd" d="M110 104.4V23.2C110 16.82 104.5 11.6 97.7778 11.6H91.6667V0H79.4444V11.6H30.5556V0H18.3333V11.6H12.2222C5.43889 11.6 0.0611111 16.82 0.0611111 23.2L0 104.4C0 110.78 5.43889 116 12.2222 116H97.7778C104.5 116 110 110.78 110 104.4ZM36.6667 52.2H24.4445V63.8H36.6667V52.2ZM12.2222 34.7999H97.7778V23.1999H12.2222V34.7999ZM97.7778 46.4002V104.4H12.2222V46.4002H97.7778ZM85.5556 63.8V52.2H73.3333V63.8H85.5556ZM61.1111 63.8H48.8889V52.2H61.1111V63.8Z" fill="#E0E0E0"/>
</svg>
